# xmcd CD database file
#
# Track frame offsets:
#	150
#	18020
#	35128
#	43908
#	54518
#	65310
#	80893
#	93840
#	107888
#	122160
#	135315
#
# Disc length: 1976 seconds
#
# Revision: 2
# Processed by: cddbd v1.5.1PL2 Copyright (c) Steve Scherf et al.
# Submitted via: CDex 1.51
#
DISCID=9107b60b
DTITLE=Nara Leão - Nara Canta em Castellano
DYEAR=1979
DGENRE=MPB
TTITLE0=Detrás Del Horizonte
TTITLE1=Propuesta
TTITLE2=Dia de Lluvia
TTITLE3=La Gitana
TTITLE4=Como Es Grande Mi Amor Por Ti
TTITLE5=As Curvas da Estrada de Santos
TTITLE6=Cabalgada
TTITLE7=Debaixo dos Caracóis dos Seus Cabelos
TTITLE8=El Divan
TTITLE9=Si Tu Piensa
TTITLE10=Mira
EXTD=YEAR: 1979
EXTT0=
EXTT1=
EXTT2=
EXTT3=
EXTT4=
EXTT5=
EXTT6=
EXTT7=
EXTT8=
EXTT9=
EXTT10=
PLAYORDER=
